<svg
  width="203"
  height="171"
  viewBox="0 0 203 171"
  fill="none"
  xmlns="http://www.w3.org/2000/svg"
>
  <path
    d="M164 13H44C38.4772 13 34 17.4772 34 23V143C34 148.523 38.4772 153 44 153H164C169.523 153 174 148.523 174 143V23C174 17.4772 169.523 13 164 13Z"
    fill="#F7F8F9"
  />
  <g filter="url(#filter0_d_287_38910)">
    <path
      d="M146 3H11C8.23858 3 6 5.23858 6 8V33C6 35.7614 8.23858 38 11 38H146C148.761 38 151 35.7614 151 33V8C151 5.23858 148.761 3 146 3Z"
      fill="white"
    />
  </g>
  <path
    d="M68 11H42C40.3431 11 39 12.3431 39 14C39 15.6569 40.3431 17 42 17H68C69.6569 17 71 15.6569 71 14C71 12.3431 69.6569 11 68 11Z"
    fill="#E5E7EB"
  />
  <path
    d="M86 24H42C40.3431 24 39 25.3431 39 27C39 28.6569 40.3431 30 42 30H86C87.6569 30 89 28.6569 89 27C89 25.3431 87.6569 24 86 24Z"
    fill="#E5E7EB"
  />
  <path
    d="M23.5 30C28.7467 30 33 25.7467 33 20.5C33 15.2533 28.7467 11 23.5 11C18.2533 11 14 15.2533 14 20.5C14 25.7467 18.2533 30 23.5 30Z"
    fill="#E5E7EB"
  />
  <path
    d="M69 41.5C69 40.9477 68.5523 40.5 68 40.5C67.4477 40.5 67 40.9477 67 41.5H69ZM82.7929 62.2071C83.1834 62.5976 83.8166 62.5976 84.2071 62.2071L90.5711 55.8431C90.9616 55.4526 90.9616 54.8195 90.5711 54.4289C90.1805 54.0384 89.5474 54.0384 89.1569 54.4289L83.5 60.0858L77.8431 54.4289C77.4526 54.0384 76.8195 54.0384 76.4289 54.4289C76.0384 54.8195 76.0384 55.4526 76.4289 55.8431L82.7929 62.2071ZM67 41.5V47H69V41.5H67ZM70 50H81.5V48H70V50ZM82.5 51V61.5H84.5V51H82.5ZM81.5 50C82.0523 50 82.5 50.4477 82.5 51H84.5C84.5 49.3431 83.1569 48 81.5 48V50ZM67 47C67 48.6569 68.3431 50 70 50V48C69.4477 48 69 47.5523 69 47H67Z"
    fill="#9A98A2"
  />
  <path
    d="M125 105.5C125 104.948 124.552 104.5 124 104.5C123.448 104.5 123 104.948 123 105.5H125ZM123.293 122.707C123.683 123.098 124.317 123.098 124.707 122.707L131.071 116.343C131.462 115.953 131.462 115.319 131.071 114.929C130.681 114.538 130.047 114.538 129.657 114.929L124 120.586L118.343 114.929C117.953 114.538 117.319 114.538 116.929 114.929C116.538 115.319 116.538 115.953 116.929 116.343L123.293 122.707ZM123 105.5V122H125V105.5H123Z"
    fill="#9A98A2"
  />
  <g filter="url(#filter1_d_287_38910)">
    <path
      d="M192 65H57C54.2386 65 52 67.2386 52 70V95C52 97.7614 54.2386 100 57 100H192C194.761 100 197 97.7614 197 95V70C197 67.2386 194.761 65 192 65Z"
      fill="white"
    />
  </g>
  <path
    d="M114 73H88C86.3431 73 85 74.3431 85 76C85 77.6569 86.3431 79 88 79H114C115.657 79 117 77.6569 117 76C117 74.3431 115.657 73 114 73Z"
    fill="#E5E7EB"
  />
  <path
    d="M132 86H88C86.3431 86 85 87.3431 85 89C85 90.6569 86.3431 92 88 92H132C133.657 92 135 90.6569 135 89C135 87.3431 133.657 86 132 86Z"
    fill="#E5E7EB"
  />
  <path
    d="M69.5 92C74.7467 92 79 87.7467 79 82.5C79 77.2533 74.7467 73 69.5 73C64.2533 73 60 77.2533 60 82.5C60 87.7467 64.2533 92 69.5 92Z"
    fill="#E5E7EB"
  />
  <g filter="url(#filter2_d_287_38910)">
    <path
      d="M192 127H57C54.2386 127 52 129.239 52 132V157C52 159.761 54.2386 162 57 162H192C194.761 162 197 159.761 197 157V132C197 129.239 194.761 127 192 127Z"
      fill="white"
    />
  </g>
  <path
    d="M114 135H88C86.3431 135 85 136.343 85 138C85 139.657 86.3431 141 88 141H114C115.657 141 117 139.657 117 138C117 136.343 115.657 135 114 135Z"
    fill="#E5E7EB"
  />
  <path
    d="M132 148H88C86.3431 148 85 149.343 85 151C85 152.657 86.3431 154 88 154H132C133.657 154 135 152.657 135 151C135 149.343 133.657 148 132 148Z"
    fill="#E5E7EB"
  />
  <path
    d="M69.5 154C74.7467 154 79 149.747 79 144.5C79 139.253 74.7467 135 69.5 135C64.2533 135 60 139.253 60 144.5C60 149.747 64.2533 154 69.5 154Z"
    fill="#E5E7EB"
  />
  <path
    d="M138.857 37C141.619 37 143.857 34.7614 143.857 32C143.857 29.2386 141.619 27 138.857 27C136.096 27 133.857 29.2386 133.857 32C133.857 34.7614 136.096 37 138.857 37Z"
    fill="#E5E7EB"
  />
  <path
    d="M142.765 53.3704C141.965 53.3704 141.218 53.3704 140.538 53.3274C139.7 53.2707 138.894 52.9841 138.209 52.4991C137.524 52.0141 136.985 51.3495 136.654 50.5784L132.435 42.2404C132.125 41.8801 131.971 41.4121 132.005 40.9384C132.039 40.4647 132.259 40.0236 132.617 39.7114C132.91 39.4757 133.275 39.3489 133.652 39.3524C133.928 39.3604 134.2 39.4284 134.448 39.5517C134.696 39.675 134.915 39.8506 135.089 40.0664L137.005 42.6814L137.034 42.7154V32.7804C137.034 32.2875 137.229 31.8148 137.578 31.4662C137.926 31.1177 138.399 30.9219 138.892 30.9219C139.385 30.9219 139.858 31.1177 140.206 31.4662C140.555 31.8148 140.751 32.2875 140.751 32.7804V39.2804C140.729 39.0412 140.757 38.8001 140.834 38.5726C140.911 38.345 141.034 38.1359 141.196 37.9586C141.358 37.7813 141.555 37.6397 141.775 37.5429C141.995 37.446 142.232 37.396 142.473 37.396C142.713 37.396 142.95 37.446 143.17 37.5429C143.39 37.6397 143.587 37.7813 143.749 37.9586C143.911 38.1359 144.034 38.345 144.111 38.5726C144.188 38.8001 144.216 39.0412 144.195 39.2804V40.6354C144.173 40.3962 144.201 40.1551 144.278 39.9276C144.355 39.7 144.478 39.4909 144.64 39.3136C144.802 39.1363 144.999 38.9947 145.219 38.8979C145.439 38.801 145.676 38.751 145.917 38.751C146.157 38.751 146.394 38.801 146.614 38.8979C146.834 38.9947 147.031 39.1363 147.193 39.3136C147.355 39.4909 147.478 39.7 147.555 39.9276C147.632 40.1551 147.66 40.3962 147.639 40.6354V41.6794C147.617 41.4402 147.645 41.1991 147.722 40.9716C147.799 40.744 147.922 40.5349 148.084 40.3576C148.246 40.1803 148.443 40.0387 148.663 39.9419C148.883 39.845 149.12 39.795 149.361 39.795C149.601 39.795 149.838 39.845 150.058 39.9419C150.278 40.0387 150.475 40.1803 150.637 40.3576C150.799 40.5349 150.922 40.744 150.999 40.9716C151.076 41.1991 151.104 41.4402 151.083 41.6794V48.0164C151.049 49.9654 150.168 53.2514 147.069 53.2514C146.844 53.2614 144.938 53.3714 142.769 53.3714L142.765 53.3704Z"
    fill="#9A98A2"
    stroke="white"
  />
  <defs>
    <filter
      id="filter0_d_287_38910"
      x="0"
      y="0"
      width="157"
      height="47"
      filterUnits="userSpaceOnUse"
      color-interpolation-filters="sRGB"
    >
      <feFlood
        flood-opacity="0"
        result="BackgroundImageFix"
      />
      <feColorMatrix
        in="SourceAlpha"
        type="matrix"
        values="0 0 0 0 0 0 0 0 0 0 0 0 0 0 0 0 0 0 127 0"
        result="hardAlpha"
      />
      <feOffset dy="3" />
      <feGaussianBlur stdDeviation="3" />
      <feColorMatrix
        type="matrix"
        values="0 0 0 0 0 0 0 0 0 0 0 0 0 0 0 0 0 0 0.161 0"
      />
      <feBlend
        mode="normal"
        in2="BackgroundImageFix"
        result="effect1_dropShadow_287_38910"
      />
      <feBlend
        mode="normal"
        in="SourceGraphic"
        in2="effect1_dropShadow_287_38910"
        result="shape"
      />
    </filter>
    <filter
      id="filter1_d_287_38910"
      x="46"
      y="62"
      width="157"
      height="47"
      filterUnits="userSpaceOnUse"
      color-interpolation-filters="sRGB"
    >
      <feFlood
        flood-opacity="0"
        result="BackgroundImageFix"
      />
      <feColorMatrix
        in="SourceAlpha"
        type="matrix"
        values="0 0 0 0 0 0 0 0 0 0 0 0 0 0 0 0 0 0 127 0"
        result="hardAlpha"
      />
      <feOffset dy="3" />
      <feGaussianBlur stdDeviation="3" />
      <feColorMatrix
        type="matrix"
        values="0 0 0 0 0 0 0 0 0 0 0 0 0 0 0 0 0 0 0.161 0"
      />
      <feBlend
        mode="normal"
        in2="BackgroundImageFix"
        result="effect1_dropShadow_287_38910"
      />
      <feBlend
        mode="normal"
        in="SourceGraphic"
        in2="effect1_dropShadow_287_38910"
        result="shape"
      />
    </filter>
    <filter
      id="filter2_d_287_38910"
      x="46"
      y="124"
      width="157"
      height="47"
      filterUnits="userSpaceOnUse"
      color-interpolation-filters="sRGB"
    >
      <feFlood
        flood-opacity="0"
        result="BackgroundImageFix"
      />
      <feColorMatrix
        in="SourceAlpha"
        type="matrix"
        values="0 0 0 0 0 0 0 0 0 0 0 0 0 0 0 0 0 0 127 0"
        result="hardAlpha"
      />
      <feOffset dy="3" />
      <feGaussianBlur stdDeviation="3" />
      <feColorMatrix
        type="matrix"
        values="0 0 0 0 0 0 0 0 0 0 0 0 0 0 0 0 0 0 0.161 0"
      />
      <feBlend
        mode="normal"
        in2="BackgroundImageFix"
        result="effect1_dropShadow_287_38910"
      />
      <feBlend
        mode="normal"
        in="SourceGraphic"
        in2="effect1_dropShadow_287_38910"
        result="shape"
      />
    </filter>
  </defs>
</svg>
